<svg width="74" height="64" viewBox="0 0 74 64" fill="none" xmlns="http://www.w3.org/2000/svg">
    <g clip-path="url(#clip0_1394_302)">
    <path d="M28.5028 61.9549C15.598 61.9549 8.33913 50.5236 8.33913 31.9082C8.33913 13.2929 15.598 1.94019 28.5028 1.94019C28.5028 1.94019 28.5565 1.94019 28.5834 1.94019V0C28.5834 0 28.5297 0 28.5028 0C11.5922 0 0.0585938 13.2929 0.0585938 31.9082C0.0585938 50.5236 11.5922 64 28.5028 64C28.5028 64 28.5565 64 28.5834 64V61.9549C28.5834 61.9549 28.5297 61.9549 28.5028 61.9549Z" fill="black"/>
    <path d="M65.9296 8.87493C60.5526 3.00193 53.455 0.0654297 44.583 0.0654297V4.86346C51.9763 4.86346 57.8104 7.30181 62.0851 12.1785C66.3597 17.0552 68.5105 23.6623 68.5105 31.9999C68.5105 40.3374 66.3597 46.9446 62.0851 51.8213C57.8104 56.698 51.9763 59.1363 44.583 59.1363V63.9343C53.4281 63.9343 60.5526 60.9978 65.9027 55.0986C71.2797 49.2256 73.9413 41.5173 73.9413 31.9999C73.9413 22.4825 71.2528 14.7742 65.9027 8.90115L65.9296 8.87493Z" fill="black"/>
    </g>
</svg>
